<?xml version="1.0" standalone="no"?>
<!DOCTYPE svg PUBLIC "-//W3C//DTD SVG 20010904//EN"
  "http://www.w3.org/TR/2001/REC-SVG-20010904/DTD/svg10.dtd">
<svg version="1.0" xmlns="http://www.w3.org/2000/svg"
     width="512.000000pt" height="512.000000pt" viewBox="0 0 512.000000 512.000000"
     preserveAspectRatio="xMidYMid meet">
  <metadata>
    Created by potrace 1.14, written by Peter Selinger 2001-2017
  </metadata>
  <g transform="translate(0.000000,512.000000) scale(0.100000,-0.100000)"
     fill="#000000" stroke="none">
    <path d="M4680 4769 c-8 -5 -77 -42 -153 -84 -371 -203 -785 -482 -1167 -788
-69 -55 -134 -108 -145 -118 -11 -10 -56 -49 -100 -86 -44 -37 -96 -82 -115
-99 -19 -17 -62 -55 -95 -84 -254 -226 -608 -577 -866 -860 -170 -186 -209
-230 -388 -439 -25 -30 -51 -59 -56 -65 -6 -6 -26 -31 -45 -56 -19 -25 -37
-47 -40 -50 -23 -22 -146 -174 -285 -354 -301 -389 -696 -950 -814 -1156 -61
-106 -62 -111 -43 -144 14 -24 26 -32 52 -34 30 -2 60 14 205 110 204 136 246
161 316 189 109 43 187 57 309 54 63 -2 124 -6 135 -8 41 -11 191 -45 230 -53
22 -4 42 -8 45 -9 6 -1 128 -21 185 -30 130 -19 396 -25 560 -12 115 9 294 46
413 86 363 119 667 359 891 701 48 73 149 254 167 300 37 92 84 221 89 243 4
22 0 34 -24 57 -44 45 -64 38 -168 -60 -191 -180 -367 -301 -593 -408 -167
-80 -361 -145 -500 -167 -14 -2 -41 -6 -60 -9 -214 -35 -510 -31 -682 10 -18
4 -35 8 -38 9 -63 13 -120 39 -134 60 -30 45 -20 72 59 157 28 30 86 94 130
143 44 49 89 99 100 111 188 209 209 225 293 225 33 0 69 -10 124 -35 79 -37
116 -43 148 -26 10 5 78 97 151 202 73 106 137 196 143 201 21 14 50 2 57 -24
4 -15 10 -62 13 -105 6 -68 10 -109 20 -209 8 -75 38 -91 116 -62 118 43 256
151 336 263 100 140 144 268 149 434 4 129 -9 213 -52 318 -27 69 -33 81 -90
169 -36 56 -44 118 -20 160 24 43 478 512 980 1012 l347 347 -11 31 c-11 34
-53 56 -79 42z m-1496 -1914 c14 -11 21 -31 24 -73 7 -102 -46 -173 -140 -187
-42 -6 -48 -5 -63 18 -15 24 -15 28 6 79 26 61 93 164 111 171 23 9 43 7 62
-8z"/>
    <path d="M4458 4081 c-14 -11 -98 -92 -186 -178 -188 -185 -187 -182 -157
-323 19 -87 34 -175 42 -240 10 -93 11 -471 0 -565 -4 -38 -12 -114 -18 -168
-13 -114 -5 -142 45 -156 45 -12 72 5 117 73 48 74 129 239 158 321 32 94 75
271 87 360 3 22 7 45 9 52 25 78 26 646 1 768 -3 11 -5 25 -5 30 -4 40 -56 54
-93 26z"/>
  </g>
</svg>
